<svg width="16" height="16" viewBox="0 0 16 16" fill="none" xmlns="http://www.w3.org/2000/svg">
<path d="M3.675 11.1L4.875 9.875C4.45 9.775 4.05 9.625 3.7 9.375L3.675 11.1ZM7.575 1.65L6.375 2.875C6.8 2.975 7.2 3.125 7.55 3.375L7.575 1.65ZM0.9 8.325L2.625 8.3C2.4 7.95 2.225 7.55 2.125 7.125L0.9 8.325ZM10.35 4.425L8.625 4.45C8.85 4.8 9.025 5.2 9.125 5.625L10.35 4.425ZM0.9 4.425L2.125 5.625C2.225 5.2 2.375 4.8 2.625 4.45L0.9 4.425ZM10.35 8.325L9.125 7.125C9.025 7.55 8.875 7.95 8.625 8.3L10.35 8.325ZM3.675 1.65L3.7 3.375C4.05 3.15 4.45 2.975 4.875 2.875L3.675 1.65ZM7.575 11.1L7.55 9.375C7.2 9.6 6.8 9.775 6.375 9.875L7.575 11.1ZM2.675 8.425L2 10L3.575 9.325C3.225 9.075 2.925 8.775 2.675 8.425ZM8.575 4.325L9.25 2.75L7.675 3.425C8.025 3.675 8.325 3.975 8.575 4.325ZM2.1 5.725L0.5 6.375L2.1 7.025C2.075 6.825 2.05 6.6 2.05 6.375C2.025 6.15 2.05 5.95 2.1 5.725ZM9.15 7.025L10.75 6.375L9.15 5.725C9.2 5.925 9.2 6.15 9.2 6.375C9.2 6.6 9.2 6.8 9.15 7.025ZM3.575 3.425L2 2.75L2.675 4.325C2.925 3.975 3.225 3.675 3.575 3.425ZM7.675 9.325L9.25 10L8.575 8.425C8.325 8.775 8.025 9.075 7.675 9.325ZM6.275 2.85L5.625 1.25L4.975 2.85C5.175 2.825 5.4 2.8 5.625 2.8C5.85 2.775 6.05 2.8 6.275 2.85ZM4.975 9.9L5.625 11.5L6.275 9.9C6.075 9.925 5.85 9.95 5.625 9.95C5.4 9.95 5.2 9.95 4.975 9.9Z" fill="#FFCE31"/>
<path d="M5.625 9.625C7.41993 9.625 8.875 8.16993 8.875 6.375C8.875 4.58007 7.41993 3.125 5.625 3.125C3.83007 3.125 2.375 4.58007 2.375 6.375C2.375 8.16993 3.83007 9.625 5.625 9.625Z" fill="#FFCE31"/>
<path d="M4.3001 14.275C4.0501 14.275 3.8001 14.225 3.5751 14.15C2.6251 13.825 1.9751 12.925 1.9751 11.9C1.9751 11.225 2.2751 10.55 2.7751 10.1C2.9001 9.97498 3.0501 9.87498 3.2001 9.79998L3.3501 9.24998C3.7251 7.87498 4.9751 6.92498 6.3751 6.92498C6.5251 6.92498 6.6501 6.92498 6.8251 6.94998L7.2001 7.02498L7.2501 6.89998C7.8251 5.84998 8.9001 5.22498 10.0501 5.22498C11.8251 5.22498 13.2501 6.69998 13.2501 8.49998V8.82498C13.3751 8.87498 13.5251 8.94998 13.6501 9.02498C14.5001 9.52498 15.0251 10.475 15.0251 11.475C15.0251 12.8 14.1501 13.925 12.8751 14.225C12.6751 14.275 12.4501 14.3 12.2501 14.3H4.3001V14.275Z" fill="white"/>
<path d="M10.075 5.7C11.575 5.7 12.8 6.95 12.8 8.5V8.725C12.175 8.775 11.6 9.025 11.15 9.425C11.475 9.225 11.875 9.125 12.3 9.125C12.45 9.125 12.6 9.15 12.75 9.175C13 9.225 13.225 9.325 13.45 9.45C14.125 9.85 14.6 10.6 14.6 11.475C14.6 12.575 13.85 13.525 12.825 13.75C12.65 13.8 12.5 13.8 12.3 13.8H4.3C4.1 13.8 3.9 13.775 3.725 13.7C2.975 13.45 2.45 12.725 2.45 11.9C2.45 11.325 2.7 10.825 3.1 10.475C3.275 10.325 3.475 10.2 3.7 10.1C3.9 10.025 4.1 10 4.325 10C4.925 10 5.45 10.3 5.8 10.75H5.825C5.425 10 4.7 9.475 3.825 9.4C4.15 8.25 5.175 7.4 6.4 7.4C6.525 7.4 6.65 7.425 6.775 7.425C7.025 7.45 7.25 7.525 7.475 7.625C8.3 8 8.9 8.8 9.05 9.75V9.725C9.05 8.65 8.5 7.7 7.7 7.15C8.15 6.275 9.025 5.7 10.075 5.7ZM10.075 4.75C8.825 4.75 7.65 5.4 6.975 6.5H6.9C6.7 6.475 6.55 6.45 6.375 6.45C4.775 6.45 3.325 7.55 2.9 9.125L2.775 9.5C2.65 9.575 2.55 9.65 2.45 9.75C1.85 10.275 1.5 11.075 1.5 11.9C1.5 13.125 2.275 14.225 3.425 14.6C3.7 14.7 4 14.75 4.3 14.75H12.275C12.525 14.75 12.75 14.725 13 14.675C14.475 14.325 15.5 13 15.5 11.475C15.5 10.3 14.875 9.2 13.875 8.625L13.725 8.55V8.525C13.725 6.425 12.1 4.75 10.075 4.75Z" fill="#75D6FF"/>
</svg>
