<svg width="24" height="24" viewBox="0 0 24 24" fill="none" xmlns="http://www.w3.org/2000/svg">
<path d="M12.0038 11.73C12.4485 11.73 12.8285 11.5717 13.1438 11.255C13.4591 10.9383 13.6165 10.5573 13.6158 10.112C13.6151 9.66667 13.4565 9.28667 13.1398 8.972C12.8231 8.65733 12.4421 8.5 11.9968 8.5C11.5515 8.5 11.1715 8.65867 10.8568 8.976C10.5421 9.29333 10.3848 9.67433 10.3848 10.119C10.3848 10.5637 10.5431 10.9437 10.8598 11.259C11.1765 11.5743 11.5578 11.7317 12.0038 11.731M11.9998 21.019C9.64981 18.941 7.87981 17.003 6.68981 15.205C5.49914 13.407 4.90381 11.7707 4.90381 10.296C4.90381 8.18067 5.59248 6.436 6.96981 5.062C8.34781 3.68733 10.0245 3 11.9998 3C13.9751 3 15.6518 3.68733 17.0298 5.062C18.4071 6.436 19.0958 8.18067 19.0958 10.296C19.0958 11.7707 18.5008 13.407 17.3108 15.205C16.1201 17.003 14.3498 18.941 11.9998 21.019Z" fill="white"/>
</svg>
