<svg width="16" height="16" viewBox="0 0 16 16" fill="none" xmlns="http://www.w3.org/2000/svg">
<path d="M14.5 9.75C14.5663 9.75 14.6299 9.72366 14.6768 9.67678C14.7237 9.62989 14.75 9.5663 14.75 9.5C14.75 9.4337 14.7237 9.37011 14.6768 9.32322C14.6299 9.27634 14.5663 9.25 14.5 9.25C13.0935 9.2491 11.6946 9.45634 10.3488 9.865C9.79326 9.50318 9.21591 9.1761 8.62 8.88562C10.4885 8.13165 12.4851 7.74604 14.5 7.75C14.5663 7.75 14.6299 7.72366 14.6768 7.67678C14.7237 7.62989 14.75 7.5663 14.75 7.5C14.75 7.4337 14.7237 7.37011 14.6768 7.32322C14.6299 7.27634 14.5663 7.25 14.5 7.25C14.0808 7.25 13.6642 7.26583 13.25 7.2975V5C13.25 4.96119 13.241 4.92291 13.2236 4.8882C13.2063 4.85348 13.181 4.82329 13.15 4.8L9.15 1.8C9.10673 1.76754 9.05409 1.75 9 1.75C8.94591 1.75 8.89327 1.76754 8.85 1.8L4.85 4.8C4.81895 4.82329 4.79375 4.85348 4.77639 4.8882C4.75904 4.92291 4.75 4.96119 4.75 5V7.575C3.68022 7.3585 2.59146 7.24962 1.5 7.25C1.4337 7.25 1.37011 7.27634 1.32322 7.32322C1.27634 7.37011 1.25 7.4337 1.25 7.5C1.25 7.5663 1.27634 7.62989 1.32322 7.67678C1.37011 7.72366 1.4337 7.75 1.5 7.75C3.86189 7.74536 6.19435 8.2741 8.32336 9.29678C10.4524 10.3195 12.323 11.8097 13.7956 13.6562C13.8378 13.7056 13.8975 13.7367 13.9622 13.7428C14.0269 13.7489 14.0914 13.7296 14.1421 13.689C14.1928 13.6484 14.2256 13.5896 14.2338 13.5252C14.2419 13.4608 14.2246 13.3957 14.1856 13.3438C13.7693 12.8246 13.3218 12.3312 12.8456 11.8663C13.3937 11.789 13.9465 11.7501 14.5 11.75C14.5663 11.75 14.6299 11.7237 14.6768 11.6768C14.7237 11.6299 14.75 11.5663 14.75 11.5C14.75 11.4337 14.7237 11.3701 14.6768 11.3232C14.6299 11.2763 14.5663 11.25 14.5 11.25C13.7911 11.2501 13.0835 11.3112 12.385 11.4325C11.9091 11.0023 11.4082 10.6006 10.885 10.2294C12.0634 9.91016 13.2791 9.74896 14.5 9.75ZM10.25 7.8125C9.48313 8.02078 8.73258 8.28503 8.00438 8.60312C7.91938 8.56687 7.835 8.52938 7.75 8.49438V6.25H10.25V7.8125ZM5.25 5.125L9 2.3125L12.75 5.125V7.34312C12.0769 7.41474 11.4089 7.5285 10.75 7.68375V6C10.75 5.9337 10.7237 5.87011 10.6768 5.82322C10.6299 5.77634 10.5663 5.75 10.5 5.75H7.5C7.4337 5.75 7.37011 5.77634 7.32322 5.82322C7.27634 5.87011 7.25 5.9337 7.25 6V8.29438C6.5971 8.04921 5.92904 7.8465 5.25 7.6875V5.125ZM8.34375 13.6381C8.32559 13.6655 8.30221 13.6891 8.27494 13.7074C8.24767 13.7258 8.21705 13.7386 8.18483 13.7451C8.15261 13.7516 8.11943 13.7516 8.08717 13.7453C8.05492 13.739 8.02424 13.7263 7.99687 13.7081C6.07239 12.4276 3.81156 11.7462 1.5 11.75C1.4337 11.75 1.37011 11.7237 1.32322 11.6768C1.27634 11.6299 1.25 11.5663 1.25 11.5C1.25 11.4337 1.27634 11.3701 1.32322 11.3232C1.37011 11.2763 1.4337 11.25 1.5 11.25C3.91009 11.2463 6.26724 11.9568 8.27375 13.2919C8.3289 13.3285 8.36725 13.3856 8.38037 13.4505C8.3935 13.5154 8.38033 13.5829 8.34375 13.6381ZM11.4731 13.3212C11.5205 13.3677 11.5476 13.431 11.5483 13.4973C11.549 13.5637 11.5233 13.6276 11.4769 13.675C11.4305 13.7224 11.3671 13.7494 11.3008 13.7501C11.2344 13.7508 11.1705 13.7252 11.1231 13.6788C8.5577 11.1534 5.09983 9.74168 1.5 9.75C1.4337 9.75 1.37011 9.72366 1.32322 9.67678C1.27634 9.62989 1.25 9.5663 1.25 9.5C1.25 9.4337 1.27634 9.37011 1.32322 9.32322C1.37011 9.27634 1.4337 9.25 1.5 9.25C5.23072 9.24116 8.81439 10.7041 11.4731 13.3212Z" fill="black"/>
</svg>
