<svg width="16" height="16" viewBox="0 0 16 16" fill="none" xmlns="http://www.w3.org/2000/svg">
<path d="M15.227 3.0075C15.2233 2.94645 15.1973 2.88888 15.154 2.84569C15.1107 2.8025 15.0531 2.77668 14.992 2.77312C11.8514 2.58562 9.33949 3.52937 8.27199 5.29125C7.54449 6.4925 7.57387 7.91125 8.34949 9.30437C7.80213 9.90566 7.44068 10.6526 7.30887 11.455L5.84074 9.98687C6.38012 8.98687 6.39137 7.96625 5.86699 7.1C5.09074 5.81812 3.27199 5.13312 1.00012 5.26625C0.93938 5.27008 0.882128 5.29594 0.839094 5.33897C0.796061 5.38201 0.770203 5.43926 0.766368 5.5C0.633243 7.77062 1.31824 9.58937 2.60012 10.3656C3.01151 10.6183 3.48485 10.7519 3.96762 10.7519C4.50049 10.7428 5.02269 10.601 5.48699 10.3394L7.25012 12.1044V14C7.25012 14.0663 7.27646 14.1299 7.32334 14.1768C7.37022 14.2237 7.43381 14.25 7.50012 14.25C7.56642 14.25 7.63001 14.2237 7.67689 14.1768C7.72378 14.1299 7.75012 14.0663 7.75012 14V12.1569C7.74777 11.2339 8.08833 10.3429 8.70574 9.65687C9.42387 10.0544 10.1476 10.2544 10.8457 10.2544C11.5034 10.2545 12.1482 10.0726 12.7089 9.72875C14.4701 8.66062 15.412 6.14875 15.227 3.0075ZM2.85887 9.9375C1.77949 9.285 1.18762 7.73062 1.25512 5.755C3.23074 5.68687 4.78512 6.27937 5.44262 7.35875C5.84762 8.02812 5.85449 8.81937 5.47137 9.61437L3.67637 7.82312C3.62881 7.78003 3.56651 7.75688 3.50235 7.75846C3.4382 7.76004 3.37711 7.78623 3.33173 7.83161C3.28635 7.87699 3.26016 7.93808 3.25858 8.00223C3.257 8.06639 3.28015 8.12869 3.32324 8.17625L5.11512 9.96812C4.31949 10.3512 3.52824 10.3444 2.85887 9.9375ZM12.4495 9.3C11.4464 9.9075 10.2564 9.89937 9.06949 9.28437L12.677 5.67625C12.7219 5.62902 12.7467 5.56611 12.7459 5.50091C12.7451 5.43572 12.7189 5.37341 12.6728 5.32727C12.6268 5.28113 12.5645 5.25481 12.4993 5.25392C12.4341 5.25302 12.3712 5.27763 12.3239 5.3225L8.71574 8.93062C8.10074 7.74312 8.09074 6.55562 8.70012 5.55062C9.64449 3.98812 11.8926 3.1425 14.7395 3.26062C14.8582 6.1075 14.0095 8.35562 12.4495 9.3Z" fill="black"/>
</svg>
